<?xml version="1.0" encoding="utf-8"?>
<!-- Generator: Adobe Illustrator 25.0.0, SVG Export Plug-In . SVG Version: 6.00 Build 0)  -->
<svg version="1.1" id="Layer_1" xmlns="http://www.w3.org/2000/svg" xmlns:xlink="http://www.w3.org/1999/xlink" x="0px" y="0px"
	 viewBox="0 0 518.6 585.7" style="enable-background:new 0 0 518.6 585.7;" xml:space="preserve">
<style type="text/css">
	.st0{fill:#FFFFFF;}
	.st1{fill:#F7F7F7;}
	.st2{fill:#FCFCFC;}
	.st3{display:none;}
	.st4{display:inline;fill:none;stroke:#000000;stroke-width:23;stroke-linejoin:round;stroke-miterlimit:10;}
	.st5{fill:none;stroke:#000000;stroke-width:30;stroke-linecap:round;stroke-linejoin:round;stroke-miterlimit:10;}
	.st6{fill:none;stroke:#000000;stroke-width:23;stroke-linecap:round;stroke-linejoin:round;stroke-miterlimit:10;}
	.st7{fill:#FFFFFF;stroke:#000000;stroke-width:6;stroke-linecap:round;stroke-miterlimit:10;}
</style>
<path class="st0" d="M299.4,282c21.7,27.6,43.6,56.3,65.5,86.1c25.4,34.5,49.4,68.4,72.1,101.7c22.8-13.1,45.7-26.2,68.5-39.2
	c-4.1-45.1-7.3-92.3-9.3-141.4c-1.9-46-2.6-90.3-2.5-132.9C428.9,198.2,364.2,240.1,299.4,282z"/>
<path class="st1" d="M21.2,154.7c90,44.1,180,88.1,270,132.2c-0.5,85.2-0.9,170.4-1.4,255.6c-10.3,7.4-20.7,14.8-31,22.1
	c-79.2-44.3-158.4-88.5-237.6-132.8C21.2,339.4,21.2,247.1,21.2,154.7z"/>
<path class="st2" d="M255.4,25.7c-78.1,43-156.1,86-234.2,129c90,44.1,180,88.1,270,132.2c71.6-43.8,143.3-87.5,214.9-131.3
	C422.5,112.3,338.9,69,255.4,25.7z"/>
<g class="st3">
	<path class="st4" d="M-380.6,299.7c83.5,47.1,167.1,94.3,250.6,141.4c-0.2,93.4-0.3,186.9-0.5,280.3
		c-27.4,14.3-54.8,28.6-82.2,42.9c0-27.4,0-54.7,0-82.1c-39.3-39.3-78.7-78.7-118-118c0,89.4,0,178.8,0,268.1
		c-15.5,9.5-31,19.1-46.5,28.6c-82.2-45.3-164.4-90.5-246.5-135.8c0-96.5,0-193.1,0-289.6C-542.6,390.2-461.6,344.9-380.6,299.7z"/>
</g>
<path class="st5" d="M304.5,541.4c-0.6-82.2-1.2-164.4-1.8-246.6c39.9,43.1,79.8,86.1,119.7,129.2c0,3.7,0.1,49.4,0.1,49.4
	c0.1-77.7,0.1-155.3,0.2-233"/>
<path class="st6" d="M423.3,477c27.4-14.3,54.8-28.6,82.2-42.9c0.2-92.8,0.3-185.6,0.5-278.5c-83.5-47.7-167.1-95.5-250.6-143.2
	c-81,45.3-162.1,90.5-243.1,135.8c0,96.5,0,193.1,0,289.6c82.2,45.3,164.3,90.5,246.5,135.8c15.5-9.5,31-19.1,46.5-28.6"/>
<path class="st7" d="M318,333.1c0.7,67.9,1.3,135.7,2,203.6c29.8-18.7,59.6-37.3,89.4-56c-0.4-17.8-0.9-35.6-1.3-53.4
	C378.1,395.9,348.1,364.5,318,333.1z"/>
</svg>
