<?xml version="1.0" encoding="utf-8"?>
<!-- Generator: Adobe Illustrator 25.0.0, SVG Export Plug-In . SVG Version: 6.00 Build 0)  -->
<svg version="1.1" id="Layer_1" xmlns="http://www.w3.org/2000/svg" xmlns:xlink="http://www.w3.org/1999/xlink" x="0px" y="0px"
	 viewBox="0 0 1239.8 1400.2" style="enable-background:new 0 0 1239.8 1400.2;" xml:space="preserve">
<style type="text/css">
	.st0{fill:#F0F0F0;}
	.st1{fill:#F7F7F7;}
	.st2{fill:#FCFCFC;}
	.st3{fill:none;stroke:#000000;stroke-width:38;stroke-linecap:round;stroke-linejoin:round;stroke-miterlimit:10;}
</style>
<g>
	<path class="st0" d="M406.1,591.7c79,48.1,158,96.1,237,144.2c0.2,88.6,0.4,177.1,0.6,265.7c-79.2-44.3-158.4-88.5-237.6-132.8
		C406.1,776.4,406.1,684.1,406.1,591.7z"/>
	<g>
		<path class="st1" d="M882.5,602.1c-79.8,44.6-159.6,89.2-239.4,133.8c0.2,87.4,0.4,174.8,0.6,262.2
			c80.9-46,161.7-91.9,242.6-137.9C885,774.2,883.7,688.2,882.5,602.1z"/>
		<path class="st2" d="M640.5,462.7c-78.1,43-156.1,86-234.2,129c78.9,48.1,157.9,96.1,236.8,144.2c45.6-23.7,92.6-49.5,140.7-77.6
			c37.4-21.8,73.2-43.8,107.4-65.7C807.6,549.3,724,506,640.5,462.7z"/>
		<path class="st3" d="M689.2,978.4c-0.6-82.2-1.2-164.4-1.8-246.6c39.9,43.1,79.8,86.1,119.7,129.2c0,3.7,0.1,49.4,0.1,49.4
			c0.1-77.7,0.1-160.9,0.2-238.6"/>
		<path class="st3" d="M808.6,914c27.4-14.3,54.8-28.6,82.2-42.9c0.2-92.8,0.3-185.6,0.5-278.5c-83.5-47.7-167.1-95.5-250.6-143.2
			c-81,45.3-162.1,90.5-243.1,135.8c0,96.5,0,193.1,0,289.6c82.2,45.3,164.3,90.5,246.5,135.8c15.5-9.5,31-19.1,46.5-28.6"/>
	</g>
</g>
</svg>
