<?xml version="1.0" encoding="utf-8"?>
<!-- Generator: Adobe Illustrator 25.0.0, SVG Export Plug-In . SVG Version: 6.00 Build 0)  -->
<svg version="1.1" xmlns="http://www.w3.org/2000/svg" xmlns:xlink="http://www.w3.org/1999/xlink" x="0px" y="0px"
	 viewBox="0 0 525.3 591.9" style="enable-background:new 0 0 525.3 591.9;" xml:space="preserve">
<style type="text/css">
	.st0{fill:#FFFFFF;}
	.st1{fill:#F7F7F7;}
	.st2{fill:#FCFCFC;}
	.st3{display:none;}
	.st4{display:inline;fill:none;stroke:#000000;stroke-width:23;stroke-linejoin:round;stroke-miterlimit:10;}
	.st5{fill:none;stroke:#000000;stroke-width:30;stroke-linecap:round;stroke-linejoin:round;stroke-miterlimit:10;}
	.st6{fill:none;stroke:#000000;stroke-width:23;stroke-linecap:round;stroke-linejoin:round;stroke-miterlimit:10;}
</style>
<g id="Layer_2">
	<path class="st0" d="M6,447.9c86.1,46.8,172.2,93.6,258.3,140.4C348.2,540.2,432.1,492,516,443.9c-0.3-97-0.7-194-1-291
		c-84-49.3-168-98.7-252-148c-84.3,48-168.7,96-253,144C8.7,248.6,7.3,348.2,6,447.9z"/>
</g>
<g id="Layer_1">
	<path class="st1" d="M25.4,158c90,44.1,180,88.1,270,132.2c-0.5,85.2-0.9,170.4-1.4,255.6c-10.3,7.4-20.7,14.8-31,22.1
		c-79.2-44.3-158.4-88.5-237.6-132.8C25.4,342.7,25.4,250.4,25.4,158z"/>
	<path class="st2" d="M259.6,29c-78.1,43-156.1,86-234.2,129c90,44.1,180,88.1,270,132.2c71.6-43.8,143.3-87.5,214.9-131.3
		C426.7,115.6,343.1,72.3,259.6,29z"/>
	<g class="st3">
		<path class="st4" d="M259.5,15.7C343,62.8,426.6,110,510.1,157.1c-0.2,93.4-0.3,186.9-0.5,280.3c-27.4,14.3-54.8,28.6-82.2,42.9
			c0-27.4,0-54.7,0-82.1c-39.3-39.3-78.7-78.7-118-118c0,89.4,0,178.8,0,268.1c-15.5,9.5-31,19.1-46.5,28.6
			c-82.2-45.3-164.4-90.5-246.5-135.8c0-96.5,0-193.1,0-289.6C97.5,106.2,178.5,60.9,259.5,15.7z"/>
	</g>
	<path class="st5" d="M308.7,544.7c-0.6-82.2-1.2-164.4-1.8-246.6c39.9,43.1,79.8,86.1,119.7,129.2c0,3.7,0.1,49.4,0.1,49.4
		c0.1-77.7,0.1-155.3,0.2-233"/>
	<path class="st6" d="M427.5,480.3c27.4-14.3,54.8-28.6,82.2-42.9c0.2-92.8,0.3-185.6,0.5-278.5c-83.5-47.7-167.1-95.5-250.6-143.2
		C178.6,61,97.5,106.2,16.5,151.5c0,96.5,0,193.1,0,289.6c82.2,45.3,164.3,90.5,246.5,135.8c15.5-9.5,31-19.1,46.5-28.6"/>
</g>
</svg>
