<?xml version="1.0" encoding="utf-8"?>
<!-- Generator: Adobe Illustrator 25.0.0, SVG Export Plug-In . SVG Version: 6.00 Build 0)  -->
<svg version="1.1" id="Layer_1" xmlns="http://www.w3.org/2000/svg" xmlns:xlink="http://www.w3.org/1999/xlink" x="0px" y="0px"
	 viewBox="0 0 518.6 585.7" style="enable-background:new 0 0 518.6 585.7;" xml:space="preserve">
<style type="text/css">
	.st0{fill:#F0F0F0;}
	.st1{fill:#F7F7F7;}
	.st2{fill:#FCFCFC;}
	.st3{display:none;}
	.st4{display:inline;fill:none;stroke:#000000;stroke-width:23;stroke-linejoin:round;stroke-miterlimit:10;}
	.st5{fill:none;stroke:#000000;stroke-width:38;stroke-linecap:round;stroke-linejoin:round;stroke-miterlimit:10;}
</style>
<path class="st0" d="M21,154.7c79,48.1,158,96.1,237,144.2c0.2,88.6,0.4,177.1,0.6,265.7C179.4,520.3,100.2,476.1,21,431.8
	C21,339.4,21,247.1,21,154.7z"/>
<path class="st1" d="M497.4,165.1c-79.8,44.6-159.6,89.2-239.4,133.8c0.2,87.4,0.4,174.8,0.6,262.2c80.9-46,161.7-91.9,242.6-137.9
	C499.9,337.2,498.6,251.2,497.4,165.1z"/>
<path class="st2" d="M255.4,25.7c-78.1,43-156.1,86-234.2,129c78.9,48.1,157.9,96.1,236.8,144.2c45.6-23.7,92.6-49.5,140.7-77.6
	c37.4-21.8,73.2-43.8,107.4-65.7C422.5,112.3,338.9,69,255.4,25.7z"/>
<g class="st3">
	<path class="st4" d="M-380.6,299.7c83.5,47.1,167.1,94.3,250.6,141.4c-0.2,93.4-0.3,186.9-0.5,280.3
		c-27.4,14.3-54.8,28.6-82.2,42.9c0-27.4,0-54.7,0-82.1c-39.3-39.3-78.7-78.7-118-118c0,89.4,0,178.8,0,268.1
		c-15.5,9.5-31,19.1-46.5,28.6c-82.2-45.3-164.4-90.5-246.5-135.8c0-96.5,0-193.1,0-289.6C-542.6,390.2-461.6,344.9-380.6,299.7z"/>
</g>
<path class="st5" d="M304.1,541.4c-0.6-82.2-1.2-164.4-1.8-246.6c39.9,43.1,79.8,86.1,119.7,129.2c0,3.7,0.1,49.4,0.1,49.4
	c0.1-77.7,0.1-160.9,0.2-238.6"/>
<path class="st5" d="M423.5,477c27.4-14.3,54.8-28.6,82.2-42.9c0.2-92.8,0.3-185.6,0.5-278.5c-83.5-47.7-167.1-95.5-250.6-143.2
	c-81,45.3-162.1,90.5-243.1,135.8c0,96.5,0,193.1,0,289.6c82.2,45.3,164.3,90.5,246.5,135.8c15.5-9.5,31-19.1,46.5-28.6"/>
</svg>
