<svg xmlns="http://www.w3.org/2000/svg" xmlns:xlink="http://www.w3.org/1999/xlink" viewBox="0 0 509.28 220.43"><defs><style>.cls-1,.cls-4{fill:none;stroke:#171e49;stroke-linecap:round;stroke-miterlimit:10;}.cls-1{stroke-width:5px;}.cls-2{fill:url(#linear-gradient);}.cls-3{fill:#1a87e8;opacity:0.4;}.cls-4{stroke-width:6px;}.cls-5{font-size:180px;font-family:Goodland-CompressedMedium, Goodland;font-weight:500;}.cls-5,.cls-6{fill:#171e49;}</style><linearGradient id="linear-gradient" x1="223.64" y1="-902.45" x2="290.17" y2="-913.2" gradientTransform="translate(-585.28 698.55) rotate(31.72)" gradientUnits="userSpaceOnUse"><stop offset="0.03" stop-color="#4ca9e7"/><stop offset="0.43" stop-color="#4eaae7"/><stop offset="0.58" stop-color="#55ace6"/><stop offset="0.68" stop-color="#60b0e5"/><stop offset="0.76" stop-color="#71b6e4"/><stop offset="0.84" stop-color="#87bee2"/><stop offset="0.9" stop-color="#a3c7e0"/><stop offset="0.95" stop-color="#c2d2dd"/><stop offset="0.99" stop-color="#dbdbdb"/></linearGradient></defs><g id="Layer_2" data-name="Layer 2"><g id="Layer_1-2" data-name="Layer 1"><path class="cls-1" d="M104.63,200.52q7.8-52.82,15.61-105.63"/><path class="cls-1" d="M2.5,123.92,76.33,70.05"/><circle class="cls-2" cx="110.12" cy="61.2" r="33.69" transform="translate(14.02 142.67) rotate(-69.35)"/><path class="cls-3" d="M82.45,40.35c.68,3.32,4.6,20.64,21.49,31.78a51.09,51.09,0,0,0,36.42,7.49c-.79,1.17-1.59,2.33-2.38,3.49a51.09,51.09,0,0,1-37.11-7.06,51,51,0,0,1-21.49-30.6Q80.93,42.9,82.45,40.35Z"/><path class="cls-3" d="M98.83,29a57.17,57.17,0,0,0,18.3,19.91,57.21,57.21,0,0,0,27.74,9.41l-.12,3.78a56.82,56.82,0,0,1-30.51-8.93A56.67,56.67,0,0,1,94.45,31.28Z"/><path class="cls-4" d="M112.46,25.88c-21.2-.06-37.85,17.34-37.22,36.75C75.81,80.26,90.52,96,109.05,96.51c19.34.52,35.54-15.76,35.76-34.89C145,43.63,131,27.86,112.46,25.88Z"/><path class="cls-1" d="M22.24,201.2,109.39,68.09"/><text class="cls-5" transform="translate(163.11 175.49)">Sputnik</text><path class="cls-6" d="M140.68,0a14.64,14.64,0,0,1-3.78,9.15,14.68,14.68,0,0,1-9.11,4.61,14.86,14.86,0,0,1,8.52,3.81A15.15,15.15,0,0,1,141,27.74a16.53,16.53,0,0,1,5.4-10.42,15.91,15.91,0,0,1,7.36-3.56,16.6,16.6,0,0,1-8.6-4.66A16.64,16.64,0,0,1,140.68,0Z"/><path class="cls-6" d="M157.74,27.92a8.2,8.2,0,0,1-7.31,7.81,8.42,8.42,0,0,1,4.83,2.16,8.58,8.58,0,0,1,2.66,5.77A9.34,9.34,0,0,1,161,37.75a9,9,0,0,1,4.18-2,9.32,9.32,0,0,1-7.42-7.81Z"/></g></g></svg>