<svg xmlns="http://www.w3.org/2000/svg" xmlns:xlink="http://www.w3.org/1999/xlink" viewBox="0 0 147.82 180.82"><defs><style>.cls-1,.cls-4{fill:none;stroke:#171e49;stroke-linecap:round;stroke-miterlimit:10;}.cls-1{stroke-width:5px;}.cls-2{fill:url(#linear-gradient);}.cls-3{fill:#1a87e8;opacity:0.4;}.cls-4{stroke-width:6px;}</style><linearGradient id="linear-gradient" x1="171.25" y1="-198.8" x2="237.78" y2="-209.54" gradientTransform="translate(-170.78 104.65) rotate(31.72)" gradientUnits="userSpaceOnUse"><stop offset="0.03" stop-color="#4ca9e7"/><stop offset="0.43" stop-color="#4eaae7"/><stop offset="0.58" stop-color="#55ace6"/><stop offset="0.68" stop-color="#60b0e5"/><stop offset="0.76" stop-color="#71b6e4"/><stop offset="0.84" stop-color="#87bee2"/><stop offset="0.9" stop-color="#a3c7e0"/><stop offset="0.95" stop-color="#c2d2dd"/><stop offset="0.99" stop-color="#dbdbdb"/></linearGradient></defs><g id="Layer_2" data-name="Layer 2"><g id="Layer_1-2" data-name="Layer 1"><path class="cls-1" d="M22.24,178.32,109.39,45.21"/><path class="cls-1" d="M104.63,177.64q7.8-52.81,15.61-105.63"/><path class="cls-1" d="M2.5,101,76.33,47.17"/><circle class="cls-2" cx="110.12" cy="38.32" r="33.69" transform="translate(35.43 127.86) rotate(-69.35)"/><path class="cls-3" d="M82.45,17.47c.68,3.32,4.6,20.64,21.49,31.78a51.09,51.09,0,0,0,36.42,7.49c-.79,1.17-1.59,2.33-2.38,3.49a51.09,51.09,0,0,1-37.11-7.06,51,51,0,0,1-21.49-30.6Q80.93,20,82.45,17.47Z"/><path class="cls-3" d="M98.83,6.15a57.09,57.09,0,0,0,18.3,19.91,57.21,57.21,0,0,0,27.74,9.41l-.12,3.78a56.82,56.82,0,0,1-30.51-8.93A56.67,56.67,0,0,1,94.45,8.4Z"/><path class="cls-4" d="M112.46,3c-21.2-.06-37.85,17.34-37.22,36.75.57,17.63,15.28,33.38,33.81,33.88,19.34.52,35.54-15.76,35.76-34.89C145,20.75,131,5,112.46,3Z"/></g></g></svg>